<?xml version="1.0" encoding="UTF-8" standalone="no"?>
<!-- Created with Inkscape (http://www.inkscape.org/) -->

<svg
   width="50"
   height="50"
   viewBox="0 0 13.229166 13.229167"
   version="1.1"
   id="svg1"
   inkscape:version="1.3 (0e150ed6c4, 2023-07-21)"
   sodipodi:docname="Logo.svg"
   inkscape:export-filename="Logo.png"
   inkscape:export-xdpi="1"
   inkscape:export-ydpi="1"
   xmlns:inkscape="http://www.inkscape.org/namespaces/inkscape"
   xmlns:sodipodi="http://sodipodi.sourceforge.net/DTD/sodipodi-0.dtd"
   xmlns="http://www.w3.org/2000/svg"
   xmlns:svg="http://www.w3.org/2000/svg">
  <sodipodi:namedview
     id="namedview1"
     pagecolor="#ffffff"
     bordercolor="#666666"
     borderopacity="1.0"
     inkscape:showpageshadow="2"
     inkscape:pageopacity="0.0"
     inkscape:pagecheckerboard="0"
     inkscape:deskcolor="#d1d1d1"
     inkscape:document-units="px"
     inkscape:zoom="3.0520623"
     inkscape:cx="279.31933"
     inkscape:cy="26.867079"
     inkscape:current-layer="layer1" />
  <defs
     id="defs1" />
  <g
     inkscape:label="Capa 1"
     inkscape:groupmode="layer"
     id="layer1"
     transform="translate(-1.1470741,-43.847683)">
    <path
       style="fill:#ffffff;fill-opacity:1;stroke-width:0.0661357"
       d="M 3.6526348,56.953867 C 3.7660724,56.726279 3.9116245,56.54588 4.1111804,56.38554 4.2472964,56.276173 4.3522585,56.208212 4.711046,55.997137 5.1186691,55.757333 5.3260323,55.605643 5.4920158,55.425844 5.686875,55.214766 5.8139256,54.988874 5.9042421,54.692917 5.9399601,54.575875 5.9462001,54.528893 5.9383981,54.435784 5.9199081,54.215141 5.7781151,54.001357 5.5764826,53.890115 5.3680607,53.775127 5.4001211,53.769722 4.5527483,54.062723 4.1403408,54.205324 3.7429297,54.337751 3.6696126,54.357005 3.3250843,54.447485 2.766383,54.503531 2.20744,54.503684 l -0.31243,7.2e-5 v -0.266449 c 0,-0.146546 0.00278,-0.266448 0.00617,-0.266448 0.0034,0 0.09525,-0.01699 0.204121,-0.03776 0.5990166,-0.114268 1.1183985,-0.307844 1.5802857,-0.58898 0.1850433,-0.11263 0.6250186,-0.421709 0.6253619,-0.439312 4.151e-4,-0.02125 -0.3675017,0.01933 -0.4913726,0.0542 -0.087544,0.02465 -0.2534235,0.103603 -0.4832252,0.230007 -0.6166346,0.339184 -0.7501407,0.383209 -1.1580741,0.381887 -0.2587789,-8.41e-4 -0.4514886,-0.02416 -0.8190579,-0.09913 L 1.165021,53.432163 1.15392,53.334184 C 1.134758,53.165051 1.126881,53.173869 1.5459826,52.895208 2.0703832,52.546532 2.6975797,52.159889 3.2572015,51.840306 l 0.5873718,-0.335429 v -0.132402 c 0,-0.12558 -0.00279,-0.135302 -0.054154,-0.188686 l -0.054155,-0.05629 -0.3082644,0.143433 c -0.3967568,0.184608 -0.5677681,0.240558 -0.7428303,0.243034 -0.1150575,0.0016 -0.1482049,-0.0054 -0.2279756,-0.04846 -0.1123885,-0.06064 -0.1846885,-0.14726 -0.2471395,-0.296092 -0.089515,-0.213331 -0.140721,-0.15419 0.4965562,-0.573517 0.3181374,-0.209334 0.7116886,-0.450943 0.9046815,-0.555402 0.3792215,-0.205258 0.5329315,-0.320644 0.6335367,-0.47558 0.083134,-0.12803 0.1162954,-0.247829 0.1162954,-0.420138 0,-0.117099 -0.026287,-0.319146 -0.041521,-0.319146 -0.018185,0 -1.1249938,0.147957 -1.1625161,0.155403 l -0.045963,0.0091 0.035856,-0.07767 c 0.1051344,-0.227736 0.3140069,-0.494954 0.4726449,-0.604671 0.036658,-0.02535 0.1885471,-0.117222 0.3375303,-0.204153 0.2296132,-0.133978 0.7017486,-0.471601 0.9245198,-0.661123 0.034276,-0.02916 0.1317536,-0.09442 0.2166182,-0.145019 0.2068078,-0.123311 0.5183558,-0.352763 0.5619345,-0.413859 0.1097384,-0.15385 -0.077367,-0.146843 -0.367666,0.01377 l -0.093334,0.05164 -0.072343,-0.08129 -0.072344,-0.08129 0.039064,-0.07837 c 0.075409,-0.151311 0.184374,-0.305529 0.2873531,-0.40669 0.098632,-0.09689 0.3543742,-0.266817 0.5432027,-0.360929 0.047628,-0.02374 0.086597,-0.04917 0.086597,-0.05651 0,-0.0073 -0.033194,-0.03481 -0.073765,-0.06103 -0.1389434,-0.0898 -0.1779,-0.195742 -0.1080065,-0.293731 0.083878,-0.117594 0.4225214,-0.416773 0.7730865,-0.682993 0.3627887,-0.275502 0.5718448,-0.52738 0.7266237,-0.875461 l 0.054739,-0.123103 0.1444003,0.08225 c 0.2495095,0.142114 0.3868465,0.261712 0.7285319,0.634435 0.3234708,0.352853 0.3316554,0.360199 0.5037738,0.452148 0.1966765,0.105068 0.3467746,0.165797 0.8748051,0.353938 0.5845905,0.208295 0.8354345,0.349998 1.0882115,0.614737 0.143076,0.149846 0.364053,0.501237 0.335011,0.532722 -0.0038,0.0041 -0.160228,0.04156 -0.34766,0.08326 -0.187434,0.0417 -0.342827,0.07806 -0.345318,0.0808 -0.0025,0.0027 0.06714,0.02721 0.154744,0.05437 0.443029,0.137322 0.793784,0.404677 0.977042,0.744726 0.05753,0.106745 0.05949,0.114809 0.02499,0.102602 -0.02059,-0.0073 -0.127419,-0.04387 -0.237395,-0.08129 -0.109975,-0.03742 -0.342423,-0.117795 -0.516551,-0.178605 -0.527192,-0.184109 -0.724995,-0.2257 -0.8492942,-0.178575 -0.064796,0.02456 -0.1074165,0.07182 -0.1082944,0.120078 -8.318e-4,0.04553 0.2840866,0.271503 0.8326166,0.660358 0.721274,0.511314 1.292704,0.893834 1.569567,1.050679 0.350978,0.198831 0.554232,0.33969 0.66081,0.457955 0.07004,0.07772 0.13576,0.193361 0.13576,0.238888 0,0.01689 -0.09907,0.01924 -0.423183,0.01004 -0.573495,-0.01627 -0.900261,-0.06482 -1.132483,-0.168266 l -0.101076,-0.04502 -0.06787,0.04386 c -0.07155,0.04624 -0.118649,0.119318 -0.104011,0.161385 0.01251,0.03595 0.516578,0.197344 1.670328,0.53481 l 0.399911,0.116973 0.0049,0.12921 c 0.0046,0.121663 0.0026,0.129775 -0.03332,0.138884 -0.021,0.0053 -0.484332,0.06625 -1.029627,0.135408 l -0.991445,0.125733 0.191624,0.01417 c 0.557833,0.04124 0.957231,0.184045 1.369297,0.489594 0.171035,0.126824 0.254708,0.200282 0.828565,0.727416 l 0.300068,0.275637 7.56e-4,0.131752 7.55e-4,0.131752 -0.112475,0.02815 c -0.29313,0.07338 -0.577561,0.08046 -0.790738,0.01969 -0.05228,-0.0149 -0.181056,-0.06418 -0.286161,-0.109502 -0.155518,-0.06706 -0.210942,-0.0824 -0.29766,-0.0824 -0.126668,0 -0.248127,0.03699 -0.39585,0.120537 -0.104613,0.05917 -0.217111,0.136132 -0.199983,0.136813 0.03586,0.0014 0.540648,0.201538 0.716497,0.284042 0.884494,0.414985 1.510591,0.935227 1.805909,1.500584 l 0.04438,0.08496 -0.10459,0.02897 c -0.164258,0.0455 -0.410064,0.07255 -0.537624,0.05916 -0.212066,-0.02226 -0.33701,-0.06474 -0.691511,-0.235097 -0.270513,-0.129995 -0.755981,-0.333963 -1.008108,-0.423552 -0.342681,-0.121767 -0.511329,-0.151941 -0.949787,-0.169938 -0.442293,-0.01815 -0.591561,-0.04559 -1.039569,-0.191066 -0.2195356,-0.07129 -0.4203649,-0.129607 -0.4462891,-0.129599 -0.081148,1.8e-5 -0.2427445,0.09791 -0.3186638,0.193022 -0.2200667,0.275709 -0.1769254,0.855337 0.1121429,1.506723 0.195077,0.439587 0.3035416,0.577888 0.735732,0.938127 0.278047,0.231759 0.715853,0.703444 0.675838,0.728139 -0.0442,0.02728 -0.351373,0.05479 -0.46852,0.04196 -0.169734,-0.01858 -0.283444,-0.06244 -0.6096159,-0.235153 -0.1598778,-0.08465 -0.3431754,-0.180985 -0.4073281,-0.214065 -0.064152,-0.03308 -0.2458895,-0.09573 -0.4038603,-0.13923 -0.157971,-0.0435 -0.2960894,-0.08513 -0.3069304,-0.09252 -0.012792,-0.0087 -0.01622,-0.0043 -0.00977,0.01255 0.00547,0.01429 0.059182,0.154155 0.1193598,0.310808 0.060178,0.156654 0.1094659,0.290242 0.1095276,0.296863 1.885e-4,0.01954 -0.1673812,-0.03444 -0.3264775,-0.105172 C 8.2808714,56.69279 8.1224358,56.58094 7.8570653,56.336274 7.7259803,56.215417 7.5863226,56.091889 7.5467151,56.061768 c -0.1040535,-0.07913 -0.3641606,-0.209834 -0.4612,-0.23175 -0.4200702,-0.09487 -0.8481814,0.0097 -1.3830237,0.337925 -0.1203694,0.07386 -0.4233722,0.208626 -1.0914225,0.485422 -0.5086361,0.210745 -0.9461543,0.392244 -0.9722626,0.403329 l -0.04747,0.02016 z M 6.1149461,52.90967 c 0.04551,-0.0562 0.1023618,-0.297965 0.1027808,-0.43708 7.342e-4,-0.243947 -0.1215595,-0.422913 -0.3944144,-0.577193 -0.1852815,-0.104763 -0.2851024,-0.09977 -0.3287494,0.01643 -0.030921,0.08232 -0.00896,0.195466 0.074785,0.385207 0.1494927,0.338723 0.3720832,0.644793 0.4689276,0.644793 0.027846,0 0.062347,-0.01447 0.07667,-0.03216 z m 0.791442,-0.169362 c 0.061251,-0.09994 0.039756,-0.284845 -0.055567,-0.477988 -0.081001,-0.164125 -0.1921689,-0.185069 -0.2661846,-0.05015 -0.047748,0.08704 -0.045687,0.342873 0.00358,0.444834 0.086723,0.179467 0.2353819,0.21839 0.3181689,0.0833 z m 0.7755228,0.007 c 0.1063207,-0.03995 0.1784299,-0.132712 0.1784299,-0.22953 0,-0.205532 -0.221512,-0.42579 -0.4549312,-0.452358 -0.077862,-0.0089 -0.094319,-0.0045 -0.1375188,0.03652 -0.047848,0.04543 -0.049066,0.05087 -0.048787,0.218117 2.332e-4,0.139554 0.00692,0.18523 0.03587,0.245031 0.091285,0.18856 0.2405357,0.252261 0.4269371,0.18222 z m 3.9860541,-0.262429 c 0.130709,-0.06548 0.212176,-0.219104 0.18397,-0.346906 -0.06371,-0.288674 -0.525445,-0.480476 -0.81469,-0.338418 -0.09327,0.04581 -0.177614,0.135886 -0.177412,0.189475 5.05e-4,0.129192 0.160429,0.350114 0.318232,0.439563 0.169194,0.09591 0.365742,0.118489 0.4899,0.05629 z M 10.687774,51.97138 c 0.126003,-0.0718 0.154469,-0.173541 0.08432,-0.301332 -0.0915,-0.166681 -0.241048,-0.22577 -0.536355,-0.211932 -0.4445472,0.02083 -0.8074965,0.239444 -0.6549448,0.394486 0.047281,0.04805 0.152563,0.08708 0.3310276,0.122725 0.2206492,0.04406 0.2271822,0.04462 0.4729602,0.04008 0.201761,-0.0037 0.242701,-0.0097 0.302997,-0.04403 z M 4.6110684,51.221335 c 0.3242444,-0.07063 0.5848377,-0.191425 0.7094802,-0.328879 0.083055,-0.09159 0.09671,-0.167075 0.041281,-0.228201 -0.085795,-0.09461 -0.380118,-0.06445 -1.0002404,0.102508 -0.279762,0.07532 -0.300398,0.08515 -0.300398,0.143093 0,0.05325 0.1165216,0.249057 0.1872813,0.314718 0.047439,0.04402 0.060655,0.04732 0.1449115,0.03621 0.050992,-0.0067 0.1489493,-0.02448 0.2176844,-0.03945 z m 3.5492054,-0.631608 c 0.027984,-0.03086 0.033326,-0.06125 0.033326,-0.18961 0,-0.235884 -0.058479,-0.405068 -0.1720615,-0.497791 -0.092555,-0.07556 -0.2680842,-0.03962 -0.3834689,0.0785 -0.097854,0.100182 -0.1162328,0.195596 -0.062708,0.325561 0.086306,0.209562 0.4792199,0.399894 0.5849124,0.283336 z M 6.710419,50.213263 c 0.033189,-0.0441 0.0066,-0.108445 -0.089153,-0.21574 C 6.5067899,49.869246 6.4061227,49.81392 6.30096,49.821482 c -0.062769,0.0045 -0.085323,0.01567 -0.1121788,0.05548 -0.082391,0.122138 -0.011725,0.249176 0.1714788,0.308273 0.1968647,0.0635 0.3162691,0.07306 0.350159,0.02803 z m 0.650698,-0.129248 c 0.1084471,-0.06184 0.1507388,-0.277123 0.077908,-0.396577 -0.047482,-0.07788 -0.1276944,-0.1113 -0.2353097,-0.09804 -0.098565,0.01214 -0.1617654,0.04587 -0.2083754,0.11122 -0.078325,0.109809 -0.01,0.274865 0.1502408,0.362923 0.1010191,0.05551 0.1465201,0.05984 0.2155363,0.02048 z m 3.622646,-0.633217 c 0.06383,-0.02676 0.08532,-0.09228 0.05293,-0.161363 -0.03309,-0.07057 -0.204197,-0.197628 -0.315025,-0.233923 -0.165339,-0.05415 -0.352393,-0.02407 -0.394889,0.0635 -0.02554,0.05264 0.0047,0.153244 0.06059,0.201752 0.115842,0.100488 0.478355,0.17953 0.596397,0.130037 z M 5.1633003,49.23671 c 0.1589976,-0.105637 0.3475668,-0.289464 0.3475668,-0.338827 0,-0.05935 -0.1316555,-0.343771 -0.1775555,-0.383587 -0.054259,-0.04707 -0.093863,-0.04716 -0.2996697,-6.95e-4 -0.3361619,0.07592 -0.4558992,0.139335 -0.4558992,0.241472 0,0.11231 0.1709919,0.469204 0.2632847,0.549526 0.068267,0.05941 0.1596162,0.04016 0.3222729,-0.0679 z M 9.5932864,48.787331 C 9.7418328,48.749598 9.7815486,48.639459 9.70845,48.467962 9.628894,48.281315 9.4371729,48.165278 9.248706,48.189706 c -0.1373437,0.0178 -0.294994,0.09523 -0.3630646,0.178325 -0.074828,0.09134 -0.077228,0.157623 -0.00882,0.243545 0.110151,0.138351 0.4935039,0.232391 0.716465,0.175755 z M 5.991727,48.75348 c 0.1178465,-0.0663 0.2523093,-0.270093 0.2523093,-0.382402 0,-0.12161 -0.099332,-0.188578 -0.2797104,-0.188578 -0.403171,0 -0.5567429,0.307111 -0.2729414,0.545825 0.059098,0.04971 0.086851,0.06058 0.1547006,0.06058 0.048764,0 0.1085104,-0.01453 0.1456419,-0.03542 z m 2.455884,-0.344988 c 0.172619,-0.06292 0.2625396,-0.149525 0.2625396,-0.252872 0,-0.05602 -0.012409,-0.08301 -0.064691,-0.140664 -0.057184,-0.06306 -0.073977,-0.07134 -0.1447059,-0.07134 -0.1527532,0 -0.286337,0.109773 -0.3675033,0.301999 -0.043761,0.103638 -0.050123,0.174865 -0.018799,0.210477 0.028976,0.03294 0.1658205,0.01339 0.3331596,-0.0476 z m -0.8791997,0.0037 c 0.2462598,-0.07239 0.3752445,-0.174351 0.3752445,-0.296622 0,-0.126798 -0.071697,-0.190328 -0.2147978,-0.190328 -0.2112776,0 -0.6850007,0.271951 -0.6850007,0.393241 0,0.03945 0.064179,0.11805 0.1044754,0.12795 0.066367,0.01631 0.3178722,-0.0042 0.4200786,-0.03424 z m -1.312016,-0.567906 c 0.178302,-0.118868 0.5414557,-0.441477 0.5659266,-0.502744 0.011042,-0.02764 0.020415,-0.09256 0.020829,-0.14426 9.178e-4,-0.114745 -0.040101,-0.181246 -0.1283728,-0.208125 -0.072237,-0.02199 -0.120338,0.0045 -0.3409076,0.187774 -0.3628661,0.301513 -0.5428061,0.602341 -0.4372377,0.730983 0.052135,0.06353 0.1617405,0.04172 0.3197625,-0.06363 z m 1.1920763,-0.708437 c 0.250422,-0.105529 0.3836205,-0.327602 0.2709918,-0.451808 -0.049621,-0.05472 -0.1442725,-0.05986 -0.2972851,-0.01613 -0.1862303,0.05322 -0.3330895,0.158959 -0.4124597,0.296978 -0.057813,0.100533 -0.048276,0.14534 0.040747,0.191428 0.088278,0.0457 0.2622131,0.03676 0.398006,-0.02047 z m 1.734326,-0.09398 c 0.026705,-0.02316 0.043905,-0.05625 0.043905,-0.08445 0,-0.0596 -0.055973,-0.146069 -0.1171271,-0.180944 -0.087107,-0.04968 -0.2594279,-0.02795 -0.396072,0.04993 -0.02938,0.01675 -0.037145,0.0348 -0.033325,0.07751 0.00432,0.04829 0.016035,0.06023 0.088293,0.09004 0.094729,0.03908 0.2620779,0.08236 0.3268459,0.08454 0.023967,8.04e-4 0.063333,-0.01568 0.08748,-0.03663 z m -0.7176914,-0.09863 c 0.1549242,-0.08238 0.1440529,-0.284159 -0.018198,-0.337768 -0.2405729,-0.07949 -0.460993,0.06349 -0.3992076,0.258946 0.036861,0.11661 0.2652457,0.159737 0.4174056,0.07882 z M 6.1055724,46.731797 c 0.1629539,-0.08159 0.2705027,-0.249726 0.2227176,-0.348191 -0.0335,-0.06903 -0.097089,-0.04694 -0.2743246,0.09529 -0.1962428,0.157485 -0.2204808,0.190234 -0.1836799,0.248175 0.033008,0.05197 0.1367661,0.05405 0.2352869,0.0047 z"
       id="path1" />
  </g>
</svg>
