<?xml version="1.0" encoding="UTF-8" standalone="no"?>
<!-- Created with Inkscape (http://www.inkscape.org/) -->

<svg
   width="800mm"
   height="725.4303mm"
   viewBox="0 0 799.99999 725.4303"
   version="1.1"
   id="svg1"
   inkscape:version="1.3 (0e150ed6c4, 2023-07-21)"
   sodipodi:docname="Logo.svg"
   inkscape:export-filename="Logo.png"
   inkscape:export-xdpi="1"
   inkscape:export-ydpi="1"
   xmlns:inkscape="http://www.inkscape.org/namespaces/inkscape"
   xmlns:sodipodi="http://sodipodi.sourceforge.net/DTD/sodipodi-0.dtd"
   xmlns="http://www.w3.org/2000/svg"
   xmlns:svg="http://www.w3.org/2000/svg">
  <sodipodi:namedview
     id="namedview1"
     pagecolor="#ffffff"
     bordercolor="#666666"
     borderopacity="1.0"
     inkscape:showpageshadow="2"
     inkscape:pageopacity="0.0"
     inkscape:pagecheckerboard="0"
     inkscape:deskcolor="#d1d1d1"
     inkscape:document-units="mm"
     inkscape:zoom="0.53953349"
     inkscape:cx="227.048"
     inkscape:cy="1069.4424"
     inkscape:current-layer="layer1" />
  <defs
     id="defs1" />
  <g
     inkscape:label="Capa 1"
     inkscape:groupmode="layer"
     id="layer1"
     transform="translate(-1.1470741,-43.847683)">
    <path
       style="fill:#ffffff;fill-opacity:1;stroke-width:3.80843"
       d="m 152.66444,762.53413 c 6.85985,-12.47997 15.66174,-22.37227 27.72937,-31.16461 8.23127,-5.99722 14.57858,-9.72389 36.27534,-21.29833 24.64996,-13.1498 37.18972,-21.46784 47.22715,-31.32724 11.78361,-11.57459 19.46667,-23.96153 24.92833,-40.19052 2.15994,-6.41813 2.53732,-8.99439 2.06548,-14.10009 -1.11814,-12.09909 -9.6927,-23.8221 -21.88591,-29.92211 -12.60378,-6.30544 -10.66501,-6.60185 -61.90771,9.46507 -24.93929,7.81963 -48.97171,15.08136 -53.40537,16.13717 -20.83447,4.96148 -54.620502,8.03481 -88.421148,8.04319 l -18.893406,0.004 v -14.61091 c 0,-8.03599 0.16799,-14.61087 0.373303,-14.61087 0.205313,0 5.75998,-0.93177 12.343694,-2.07061 36.223998,-6.26594 67.632287,-16.88081 95.563737,-32.29709 11.19002,-6.17614 37.7964,-23.12474 37.81716,-24.08999 0.0251,-1.16553 -22.22373,1.06 -29.7145,2.97233 -5.29397,1.35154 -15.32514,5.68112 -29.22181,12.61259 -37.2894,18.59936 -45.362836,21.01349 -70.031563,20.94102 -15.648997,-0.0461 -27.302621,-1.32496 -49.530434,-5.43589 L 2.2325393,569.41913 1.5612532,564.04634 C 0.4024796,554.77182 -0.07384137,555.25541 25.270235,539.97483 56.982018,520.85496 94.91012,499.6531 128.75182,482.12855 l 35.51961,-18.39345 v -7.26036 c 0,-6.8863 -0.16871,-7.41937 -3.27485,-10.34676 l -3.27486,-3.08643 -18.6415,7.86522 c -23.99285,10.12308 -34.33432,13.19116 -44.920758,13.32693 -6.957809,0.0891 -8.962314,-0.29706 -13.786246,-2.65726 -6.796407,-3.32518 -11.168559,-8.0751 -14.945125,-16.23643 -5.413211,-11.69817 -8.509742,-8.4551 30.027964,-31.44918 19.238545,-11.47896 43.037545,-24.72778 54.708295,-30.45586 22.93245,-11.25545 32.22767,-17.58271 38.31151,-26.07872 5.02735,-7.02062 7.03267,-13.5899 7.03267,-23.03859 0,-6.42121 -1.58961,-17.50056 -2.51091,-17.50056 -1.09967,0 -68.03112,8.1133 -70.30018,8.52164 l -2.77953,0.50024 2.16828,-4.25901 c 6.35773,-12.48809 18.98876,-27.14116 28.58199,-33.15753 2.21682,-1.39031 11.4019,-6.42799 20.41128,-11.1949 13.88527,-7.34677 42.43645,-25.86058 55.90797,-36.25312 2.07272,-1.59897 7.96746,-5.17749 13.09943,-7.95224 12.50617,-6.7618 31.34624,-19.34395 33.98155,-22.69419 6.63615,-8.43651 -4.67856,-8.05225 -22.23366,0.75507 l -5.64416,2.83166 -4.37479,-4.45759 -4.37479,-4.45758 2.36229,-4.29735 c 4.56014,-8.29723 11.14954,-16.75389 17.37694,-22.30109 5.96451,-5.31301 21.42987,-14.63108 32.84879,-19.79178 2.88019,-1.30168 5.23671,-2.69623 5.23671,-3.09898 0,-0.40275 -2.00733,-1.90865 -4.46073,-3.34643 -8.40225,-4.92405 -10.75805,-10.73362 -6.53142,-16.10692 5.07228,-6.44836 25.5509,-22.85405 46.75043,-37.452388 21.93872,-15.107358 34.58085,-28.91926 43.94071,-48.00652 l 3.31021,-6.750409 8.73224,4.510029 c 15.08845,7.792884 23.39355,14.35112 44.0561,34.789635 19.56107,19.348973 20.05601,19.751803 30.46443,24.793863 11.89351,5.76148 20.97031,9.09157 52.9016,19.40845 35.35161,11.42199 50.52076,19.19237 65.80682,33.70948 8.65212,8.2169 22.01516,27.48566 20.2589,29.21221 -0.22851,0.22469 -9.68935,2.27922 -21.02386,4.56559 -11.33455,2.28638 -20.73156,4.28031 -20.88222,4.43097 -0.15043,0.15067 4.06036,1.49216 9.35778,2.98111 26.79101,7.53014 48.00205,22.19074 59.0841,40.83756 3.47878,5.85341 3.59756,6.29565 1.51149,5.62624 -1.24524,-0.39954 -7.70534,-2.40548 -14.35582,-4.45762 -6.65048,-2.0521 -20.70718,-6.45941 -31.23712,-9.79392 -31.8806,-10.09578 -43.84221,-12.37643 -51.35888,-9.79229 -3.91835,1.34704 -6.49574,3.93849 -6.54883,6.58452 -0.0503,2.49685 17.17939,14.88805 50.35036,36.21122 43.61717,28.03824 78.17297,49.01395 94.91553,57.61466 21.22449,10.90305 33.51576,18.62717 39.96081,25.11228 4.23566,4.26198 8.20973,10.60307 8.20973,13.09957 0,0.92621 -5.99086,1.05517 -25.5909,0.55085 -34.68063,-0.89239 -54.44096,-3.55475 -68.484,-9.22696 l -6.11235,-2.46889 -4.10442,2.40533 c -4.32696,2.53577 -7.17498,6.54289 -6.28978,8.84962 0.75643,1.97132 31.23872,10.82148 101.00879,29.3267 l 24.18357,6.41425 0.29363,7.08532 c 0.27649,6.67147 0.15881,7.11633 -2.01527,7.61584 -1.26993,0.29173 -29.28874,3.6331 -62.26403,7.42516 l -59.95509,6.89467 11.58796,0.77685 c 33.73352,2.26141 57.88608,10.09224 82.80471,26.84722 10.34291,6.95447 15.4028,10.98261 50.10533,39.88837 l 18.14586,15.11472 0.0457,7.22472 0.0457,7.22468 -6.80164,1.54394 c -17.72632,4.02384 -34.92651,4.41218 -47.81787,1.07965 -3.16169,-0.81733 -10.94891,-3.51941 -17.30488,-6.00465 -9.40455,-3.67727 -12.75613,-4.51859 -18.00019,-4.51859 -7.65994,0 -15.00485,2.02807 -23.93803,6.60973 -6.32623,3.24463 -13.12924,7.46488 -12.09346,7.5022 2.16871,0.0781 32.69431,11.05147 43.32834,15.57566 53.48752,22.75597 91.34912,51.28381 109.20771,82.28554 l 2.68357,4.65859 -6.32478,1.58873 c -9.93308,2.4951 -24.79759,3.97829 -32.51143,3.24395 -12.82418,-1.22079 -20.37985,-3.55011 -41.81741,-12.89171 -16.35853,-7.12836 -45.716,-18.31305 -60.96273,-23.22577 -20.72276,-6.67714 -30.92129,-8.33179 -57.43596,-9.31864 -26.74652,-0.99548 -35.77309,-2.49989 -62.86526,-10.47723 -13.27583,-3.90909 -25.42047,-7.10711 -26.98817,-7.10665 -4.90721,10e-4 -14.67935,5.36882 -19.27038,10.58451 -13.30797,15.11865 -10.69911,46.90294 6.78156,82.62217 11.79678,24.105 18.3559,31.68885 44.49148,51.44282 16.8142,12.70863 43.28937,38.57381 40.86961,39.92798 -2.67272,1.49572 -21.24837,3.00439 -28.33255,2.30109 -10.26427,-1.01898 -17.14055,-3.4242 -36.86497,-12.89479 -9.6682,-4.64214 -20.75265,-9.92444 -24.63212,-11.7384 -3.87942,-1.81395 -14.86954,-5.24966 -24.42242,-7.6348 -9.55289,-2.38519 -17.90525,-4.66819 -18.56083,-5.07337 -0.77357,-0.47811 -0.98086,-0.23651 -0.59054,0.68822 0.33058,0.78366 3.57887,8.4532 7.21798,17.04339 3.63911,8.59023 6.61967,15.91561 6.6234,16.27867 0.0114,1.07146 -10.12195,-1.88853 -19.74289,-5.76716 -13.26345,-5.34708 -22.84444,-11.48033 -38.89204,-24.89676 -7.92703,-6.62729 -16.37247,-13.40101 -18.76763,-15.05273 -6.29237,-4.33925 -22.02168,-11.50639 -27.88989,-12.70818 -25.40267,-5.20243 -51.2916,0.5336 -83.63482,18.53036 -7.27903,4.05027 -25.60235,11.44012 -66.00098,26.61845 -30.75847,11.55635 -57.21626,21.50894 -58.79509,22.1168 l -2.8706,1.10525 z M 301.56641,540.76786 c 2.75208,-3.08171 6.19007,-16.3391 6.21541,-23.96759 0.0444,-13.37697 -7.351,-23.19074 -23.8512,-31.65076 -11.20443,-5.74476 -17.24084,-5.47116 -19.88028,0.901 -1.86989,4.51433 -0.54157,10.71854 4.52244,21.1231 9.04019,18.57408 22.50078,35.35763 28.3572,35.35763 1.68391,0 3.7703,-0.79353 4.63643,-1.76338 z m 47.86043,-9.2871 c 3.70399,-5.48053 2.40413,-15.61965 -3.36029,-26.21079 -4.89835,-8.99987 -11.62092,-10.14838 -16.09683,-2.75004 -2.88742,4.7727 -2.76281,18.80168 0.21667,24.39276 5.24436,9.84119 14.23412,11.97555 19.24045,4.56807 z m 46.89776,0.38576 c 6.42947,-2.19073 10.79009,-7.27731 10.79009,-12.58639 0,-11.27049 -13.39537,-23.34852 -27.5108,-24.80536 -4.70853,-0.486 -5.70368,-0.24641 -8.3161,2.00263 -2.89348,2.49094 -2.96711,2.78945 -2.95025,11.96058 0.0141,7.65255 0.41841,10.15721 2.16915,13.43646 5.5202,10.33979 14.54578,13.83288 25.81791,9.99208 z m 241.04644,-14.39044 c 7.90425,-3.59082 12.83077,-12.01474 11.12508,-19.02283 -3.8528,-15.82965 -31.77491,-26.34721 -49.26629,-18.55736 -5.64045,2.512 -10.74074,7.45135 -10.72852,10.38998 0.0305,7.0843 9.70154,19.1987 19.24425,24.10374 10.23159,5.2591 22.1173,6.49738 29.62548,3.08647 z m -59.27456,-28.15999 c 7.61969,-3.93739 9.34114,-9.51625 5.09873,-16.52377 -5.53343,-9.14002 -14.57678,-12.38023 -32.43469,-11.6214 -26.88286,1.14238 -48.83129,13.13007 -39.60612,21.63191 2.85918,2.63498 9.22586,4.77532 20.01805,6.72969 13.34319,2.4163 13.73828,2.44669 28.60104,2.19808 12.20097,-0.20413 14.67672,-0.53032 18.32299,-2.41451 z M 210.62326,448.18686 c 19.60785,-3.87284 35.36656,-10.49689 42.904,-18.03431 5.02253,-5.02257 5.84826,-9.16165 2.49639,-12.51353 -5.18822,-5.18819 -22.98666,-3.53419 -60.48698,5.62106 -16.91789,4.13029 -18.1658,4.66933 -18.1658,7.84663 0,2.91985 7.04635,13.6572 11.32536,17.25777 2.86873,2.41387 3.66797,2.59496 8.76315,1.98561 3.08359,-0.36866 9.00733,-1.34225 13.16388,-2.16323 z m 214.62911,-34.63463 c 1.69227,-1.69228 2.0153,-3.35882 2.0153,-10.39741 0,-12.93486 -3.53636,-22.2122 -10.40498,-27.29673 -5.59703,-4.14327 -16.21171,-2.17275 -23.1893,4.30486 -5.9175,5.49352 -7.02888,10.72562 -3.79209,17.85235 5.21915,11.49149 28.9796,21.92843 35.37107,15.53693 z m -87.67626,-20.6437 c 2.00699,-2.41828 0.39904,-5.94661 -5.39129,-11.83022 -6.92265,-7.03414 -13.01024,-10.06802 -19.36969,-9.65332 -3.79581,0.24755 -5.15968,0.85919 -6.78372,3.0423 -4.98239,6.69751 -0.70906,13.66371 10.36974,16.90431 11.90489,3.4822 19.12556,4.00632 21.17496,1.53693 z m 39.3493,-7.08739 c 6.55806,-3.39129 9.11554,-15.19622 4.71127,-21.74658 -2.87133,-4.27051 -7.72199,-6.10321 -14.22975,-5.37633 -5.96048,0.66575 -9.78235,2.51551 -12.60097,6.09883 -4.73648,6.02144 -0.60445,15.07241 9.08543,19.90109 6.10887,3.04416 8.86043,3.28123 13.03402,1.12299 z m 219.07022,-34.72287 c 3.86004,-1.46758 5.15951,-5.06023 3.20057,-8.84844 -2.00122,-3.86998 -12.34828,-10.83705 -19.05033,-12.82734 -9.99843,-2.96921 -21.31006,-1.31989 -23.87991,3.4819 -1.5447,2.8863 0.28258,8.40327 3.66409,11.06323 7.00524,5.51031 28.92731,9.84462 36.06558,7.13065 z M 244.01807,339.35862 c 9.61497,-5.79267 21.01821,-15.87295 21.01821,-18.5798 0,-3.25423 -7.96153,-18.85091 -10.73721,-21.03425 -3.28119,-2.58097 -5.67615,-2.58593 -18.12176,-0.0381 -20.32853,4.16281 -27.56934,7.64048 -27.56934,13.24124 0,6.15862 10.3403,25.72914 15.92147,30.13363 4.12825,3.25793 9.65238,2.2025 19.48863,-3.72347 z m 267.89207,-24.64199 c 8.98296,-2.06912 11.38467,-8.10869 6.96422,-17.51282 -4.81097,-10.2349 -16.40479,-16.59788 -27.80184,-15.25838 -8.30551,0.97614 -17.83901,5.2222 -21.9554,9.77858 -4.52503,5.00866 -4.67017,8.64335 -0.53333,13.35496 6.6611,7.58656 29.84339,12.74329 43.32635,9.63766 z m -217.79509,-1.85627 c 7.12647,-3.63564 15.25776,-14.81073 15.25776,-20.96924 0,-6.66857 -6.00683,-10.34081 -16.91477,-10.34081 -24.38073,0 -33.6676,16.84063 -16.50543,29.93068 3.57377,2.72577 5.25207,3.32171 9.35512,3.32171 2.9489,0 6.56189,-0.7968 8.80732,-1.94234 z m 148.5133,-18.91763 c 10.43869,-3.45003 15.87641,-8.19934 15.87641,-13.86644 0,-3.07215 -0.75041,-4.55173 -3.91202,-7.71338 -3.45806,-3.45806 -4.47358,-3.91206 -8.75072,-3.91206 -9.23736,0 -17.3155,6.0195 -22.22382,16.56033 -2.64633,5.68306 -3.03105,9.58888 -1.13685,11.54169 1.75226,1.80646 10.02757,0.73435 20.147,-2.61014 z m -53.16735,0.2026 c 14.89193,-3.9696 22.69195,-9.56065 22.69195,-16.26548 0,-6.95306 -4.33571,-10.43675 -12.98935,-10.43675 -12.77647,0 -41.42366,14.91265 -41.42366,21.56363 0,2.1633 3.88107,6.47338 6.31788,7.01624 4.01336,0.89407 19.22251,-0.23003 25.40318,-1.87764 z m -79.34081,-31.14149 c 10.78236,-6.51822 32.74315,-24.20872 34.22296,-27.56829 0.66776,-1.51598 1.23456,-5.07577 1.25956,-7.91061 0.0555,-6.29213 -2.425,-9.93877 -7.76302,-11.41267 -4.36832,-1.20615 -7.27713,0.24671 -20.61551,10.29672 -21.9434,16.53363 -32.82481,33.02973 -26.44083,40.08394 3.15272,3.48373 9.78084,2.28777 19.33684,-3.48909 z m 72.08776,-38.84765 c 15.14363,-5.78671 23.19847,-17.96426 16.38754,-24.77518 -3.0007,-3.00069 -8.72451,-3.28235 -17.97756,-0.88464 -11.2618,2.91822 -20.14273,8.7166 -24.94244,16.28497 -3.49612,5.5128 -2.91936,7.96984 2.46406,10.49708 5.33841,2.5061 15.85666,2.01569 24.0684,-1.12223 z m 104.87893,-5.15336 c 1.61489,-1.27028 2.65501,-3.08442 2.65501,-4.63078 0,-3.26819 -3.38482,-8.00981 -7.08296,-9.9222 -5.2676,-2.72399 -15.68824,-1.53277 -23.95144,2.73796 -1.77671,0.91829 -2.24622,1.90844 -2.01527,4.25012 0.26125,2.64779 0.96966,3.30303 5.33931,4.93771 5.72849,2.14301 15.84849,4.51644 19.76517,4.63551 1.44933,0.0441 3.82991,-0.85969 5.29018,-2.00832 z m -43.40055,-5.40866 c 9.36864,-4.5176 8.71123,-15.5821 -1.10048,-18.52176 -14.54803,-4.3587 -27.87737,3.48147 -24.14106,14.1995 2.22907,6.39434 16.04006,8.75927 25.24154,4.32226 z M 300.99956,202 c 9.85422,-4.47386 16.35796,-13.69387 13.46828,-19.09328 -2.02586,-3.78536 -5.87121,-2.57416 -16.58908,5.2252 -11.86728,8.63579 -13.33301,10.43158 -11.10757,13.60884 1.99607,2.84979 8.27058,2.96411 14.22837,0.25924 z"
       id="path1" />
  </g>
</svg>
