<svg xmlns="http://www.w3.org/2000/svg" width="24.037" height="24.037" viewBox="0 0 24.037 24.037">
  <g id="Group_317" data-name="Group 317" transform="translate(-264.639 -67.639)">
    <path id="Path_955" data-name="Path 955" d="M15.822,8.979v.029H4V-2.1A5.915,5.915,0,0,1,9.912-7.841a5.913,5.913,0,0,1,5.849,5.049,5.912,5.912,0,0,1,.061,11.772ZM14.346-1.314v-.679l-.005-.158A4.434,4.434,0,0,0,9.912-6.363,4.433,4.433,0,0,0,5.478-2.077V7.53h8.87V7.507l.821.023h.064a4.434,4.434,0,0,0,.007-8.868h-.083l-.132,0-.66.036v-.017Z" transform="translate(267.355 88.136) rotate(-45)" fill="#e76f51"/>
  </g>
</svg>
